<svg width="209.99999999999997" height="297" xmlns="http://www.w3.org/2000/svg">

 <metadata id="metadata5">image/svg+xml</metadata>
 <g>
  <title>background</title>
  <rect fill="none" id="canvas_background" height="402" width="582" y="-1" x="-1"/>
 </g>
 <g>
  <title>Layer 1</title>
  <g stroke="null" id="layer1">
   <g stroke="null" transform="matrix(0.02009340404957254,-0.011952846365756222,0.02009340404957254,0.011952846365756222,-2.223803755387996,38.85840519508466) " id="g923">
    <path fill="#ffc40c" fill-opacity="0.393204" stroke-width="0.264583" stroke-linejoin="round" stroke-miterlimit="4" id="path901" d="m1672.733641,-1492.114234l0,0l12.642598,-12.64261l0,0l12.6426,12.6426"/>
    <path fill="#ffc40c" fill-opacity="0.393204" stroke-width="0.264583" stroke-linejoin="round" stroke-miterlimit="4" d="m1700.475684,-1489.090434l0,0l12.64261,12.6426l0,0l-12.642609,12.64259" id="path903"/>
    <path fill="#ffc40c" fill-opacity="0.393204" stroke-width="0.264583" stroke-linejoin="round" stroke-miterlimit="4" id="path905" d="m1698.01884,-1460.970424l0,0l-12.642594,12.64261l0,0l-12.642595,-12.64261"/>
    <path fill="#ffc40c" fill-opacity="0.393204" stroke-width="0.264583" stroke-linejoin="round" stroke-miterlimit="4" id="path907" d="m1670.276796,-1489.090424l0,0l-12.64261,12.64259l0,0l12.64261,12.64259"/>
   </g>
   <g stroke="null" fill="#ff7719" stroke-width="1.466031" transform="matrix(0.01678634331750327,-0.005765185558815584,0.009691599750325514,0.009985594388185493,-0.49768473416253767,38.834511102019604) " id="g849">
    <path fill="#ff7719" stroke-width="0.387887" stroke-linejoin="round" stroke-miterlimit="4" id="path841" d="m1740.121916,-2781.045218l0,0l8.025953,-8.02596l0,0l8.025953,8.02596"/>
    <path fill="#ff7719" stroke-width="0.387887" stroke-linejoin="round" stroke-miterlimit="4" d="m1756.173822,-2781.045218l0,0l8.02596,8.02595l0,0l-8.02596,8.02595" id="path843"/>
    <path fill="#ff7719" stroke-width="0.387887" stroke-linejoin="round" stroke-miterlimit="4" id="path845" d="m1756.173822,-2764.993318l0,0l-8.02595,8.02596l0,0l-8.02595,-8.02596"/>
    <path fill="#ff7719" stroke-width="0.387887" stroke-linejoin="round" stroke-miterlimit="4" id="path847" d="m1740.121916,-2781.045218l0,0l-8.02596,8.02595l0,0l8.02596,8.02595"/>
   </g>
   <g stroke="null" fill="#ffc719" transform="matrix(0.02744810038022121,-0.00437504541739928,0.007354696330648664,0.0163278917831555,-0.7595622697688991,37.80294637950965) " id="g839">
    <path fill="#ffc719" stroke-width="0.264583" stroke-linejoin="round" stroke-miterlimit="4" d="m647.325923,-2082.383346l0,0l8.025953,-8.02596l0,0l8.025953,8.02596" id="path825"/>
    <path fill="#ffc719" stroke-width="0.264583" stroke-linejoin="round" stroke-miterlimit="4" id="path827" d="m663.377829,-2082.383346l0,0l8.02596,8.02595l0,0l-8.02596,8.02595"/>
    <path fill="#ffc719" stroke-width="0.264583" stroke-linejoin="round" stroke-miterlimit="4" d="m663.377829,-2066.331446l0,0l-8.02595,8.02596l0,0l-8.02595,-8.02596" id="path829"/>
    <path fill="#ffc719" stroke-width="0.264583" stroke-linejoin="round" stroke-miterlimit="4" d="m647.325923,-2082.383346l0,0l-8.02596,8.02595l0,0l8.02596,8.02595" id="path831"/>
   </g>
   <g stroke="null" fill="#ff1919" stroke-width="2.074846" id="g859" transform="matrix(0.013695651638542878,0,0,0.008147052610426305,1.1341625933146455,38.77917113734682) ">
    <path fill="#ff1919" stroke-width="0.54897" stroke-linejoin="round" stroke-miterlimit="4" d="m53.173809,-4637.098999l0,0l8.025953,-8.02596l0,0l8.025953,8.02596" id="path851"/>
    <path fill="#ff1919" stroke-width="0.54897" stroke-linejoin="round" stroke-miterlimit="4" id="path853" d="m69.225715,-4637.098999l0,0l8.02596,8.02595l0,0l-8.02596,8.02595"/>
    <path fill="#ff1919" stroke-width="0.54897" stroke-linejoin="round" stroke-miterlimit="4" d="m69.225715,-4621.047099l0,0l-8.02595,8.02596l0,0l-8.02595,-8.02596" id="path855"/>
    <path fill="#ff1919" stroke-width="0.54897" stroke-linejoin="round" stroke-miterlimit="4" d="m53.173809,-4637.098999l0,0l-8.02596,8.02595l0,0l8.02596,8.02595" id="path857"/>
   </g>
   <text font-style="normal" font-weight="normal" font-size="10.583333px" font-family="HERO" text-anchor="start" fill="#000000" stroke-width="0.264583" transform="matrix(0.028416359019207776,-0.000010519012873511507,0.000017683049660510686,0.01690387416650727,3.2111996912366303,29.944455185873924) " id="text880" y="-1710.332787" x="-19.162716" xml:space="preserve">
    <tspan stroke="null" font-style="normal" font-weight="normal" font-size="10.583333px" font-family="HERO" text-anchor="start" stroke-width="0.264583" y="-1710.332787" x="-19.162716" id="tspan878">GAMING</tspan>
   </text>
   <text font-style="normal" font-weight="normal" font-size="10.583333px" font-family="HERO" text-anchor="start" fill="#000000" stroke-width="0.264583" transform="matrix(0.028416359019207776,-0.000010519012873511507,0.000017683049660510686,0.01690387416650727,3.2111996912366303,29.944455185873924) " id="text884" y="-1698.840687" x="-19.169865" xml:space="preserve">
    <tspan stroke="null" font-style="normal" font-weight="normal" font-size="10.583333px" font-family="HERO" text-anchor="start" stroke-width="0.264583" y="-1698.840687" x="-19.169865" id="tspan882">GUIDES</tspan>
   </text>
  </g>
 </g>
</svg>